<svg width="60" height="49" viewBox="0 0 60 49" fill="none" xmlns="http://www.w3.org/2000/svg">
<path d="M16.6667 48.0406C13.0242 47.7774 9.56317 46.4377 6.77782 44.2128C3.99247 41.9879 2.02524 38.9917 1.15702 35.6518C0.2888 32.312 0.563985 28.7993 1.94328 25.6155C3.32258 22.4316 5.73547 19.7393 8.8374 17.923C9.49743 13.0793 12.0102 8.62791 15.9055 5.40195C19.8007 2.17598 24.8115 0.396484 30.0001 0.396484C35.1887 0.396484 40.1994 2.17598 44.0947 5.40195C47.9899 8.62791 50.5027 13.0793 51.1627 17.923C54.2647 19.7393 56.6776 22.4316 58.0569 25.6155C59.4361 28.7993 59.7113 32.312 58.8431 35.6518C57.9749 38.9917 56.0077 41.9879 53.2223 44.2128C50.437 46.4377 46.9759 47.7774 43.3334 48.0406V48.0883H16.6667V48.0406ZM32.6667 28.0099H40.6667L30.0001 15.4608L19.3334 28.0099H27.3334V38.0491H32.6667V28.0099Z" fill="#33BDF1"/>
</svg>
