<svg width="20" height="16" viewBox="0 0 20 16" fill="none" xmlns="http://www.w3.org/2000/svg">
<path d="M19.7501 14.7501C19.7501 14.949 19.6711 15.1397 19.5304 15.2804C19.3898 15.421 19.199 15.5001 19.0001 15.5001C18.8012 15.5001 18.6104 15.421 18.4698 15.2804C18.3291 15.1397 18.2501 14.949 18.2501 14.7501C18.2476 12.5628 17.3776 10.4658 15.831 8.91916C14.2844 7.37252 12.1874 6.50253 10.0001 6.50005H2.81041L6.03073 9.71943C6.17146 9.86016 6.25052 10.051 6.25052 10.2501C6.25052 10.4491 6.17146 10.6399 6.03073 10.7807C5.89 10.9214 5.69912 11.0005 5.5001 11.0005C5.30108 11.0005 5.11021 10.9214 4.96948 10.7807L0.469477 6.28068C0.399744 6.21102 0.344425 6.1283 0.306682 6.03726C0.268939 5.94621 0.249512 5.84861 0.249512 5.75005C0.249512 5.65149 0.268939 5.55389 0.306682 5.46285C0.344425 5.3718 0.399744 5.28908 0.469477 5.21943L4.96948 0.719426C5.11021 0.578695 5.30108 0.499634 5.5001 0.499634C5.69912 0.499634 5.89 0.578695 6.03073 0.719426C6.17146 0.860156 6.25052 1.05103 6.25052 1.25005C6.25052 1.44907 6.17146 1.63995 6.03073 1.78068L2.81041 5.00005H10.0001C12.5851 5.00278 15.0635 6.03089 16.8914 7.85878C18.7193 9.68666 19.7474 12.165 19.7501 14.7501Z" fill="#FF8A8A"/>
</svg>
