<svg width="18" height="19" viewBox="0 0 18 19" fill="none" xmlns="http://www.w3.org/2000/svg">
<g clip-path="url(#clip0_392_1269)">
<path d="M9.9375 4.1875H16.1875V14.8125H9.9375M9.9375 2.3125L1.8125 3.875V15.125L9.9375 16.6875V2.3125Z" stroke="#565656" stroke-linecap="round" stroke-linejoin="round"/>
<path d="M4.3125 7.3125L6.8125 12.3125M4.3125 12.3125L6.8125 7.3125M9.9375 5.4375H11.8125V6.0625H9.9375V5.4375ZM13.0625 5.4375H14.9375V6.0625H13.0625V5.4375ZM9.9375 7.3125H11.8125V7.9375H9.9375V7.3125ZM13.0625 7.3125H14.9375V7.9375H13.0625V7.3125ZM9.9375 9.1875H11.8125V9.8125H9.9375V9.1875ZM13.0625 9.1875H14.9375V9.8125H13.0625V9.1875ZM9.9375 11.0625H11.8125V11.6875H9.9375V11.0625ZM13.0625 11.0625H14.9375V11.6875H13.0625V11.0625ZM9.9375 12.9375H11.8125V13.5625H9.9375V12.9375ZM13.0625 12.9375H14.9375V13.5625H13.0625V12.9375Z" stroke="#565656" stroke-linecap="round" stroke-linejoin="round"/>
</g>
<defs>
<clipPath id="clip0_392_1269">
<rect width="15" height="15" fill="white" transform="translate(1.5 2)"/>
</clipPath>
</defs>
</svg>
