<svg width="24" height="24" viewBox="0 0 24 24" fill="none" xmlns="http://www.w3.org/2000/svg">
<path d="M11.3846 19.5C11.1334 19.5 10.9231 19.4154 10.7539 19.2461C10.5846 19.0769 10.5 18.8666 10.5 18.6154V12.8269L4.90196 5.71541C4.70966 5.45899 4.68178 5.19232 4.81831 4.91541C4.95484 4.63849 5.18529 4.50003 5.50964 4.50003H18.4903C18.8147 4.50003 19.0451 4.63849 19.1817 4.91541C19.3182 5.19232 19.2903 5.45899 19.098 5.71541L13.5 12.8269V18.6154C13.5 18.8666 13.4153 19.0769 13.2461 19.2461C13.0769 19.4154 12.8666 19.5 12.6153 19.5H11.3846ZM12 12.3L16.95 6.00001H7.04999L12 12.3Z" fill="#B7B7B7"/>
</svg>
