<svg width="18" height="18" viewBox="0 0 18 18" fill="none" xmlns="http://www.w3.org/2000/svg">
<path d="M8.45875 12.0012C8.38549 11.9057 8.29201 11.8276 8.185 11.7725C8.07484 11.7151 7.94359 11.6863 7.79125 11.6863C7.6773 11.685 7.56453 11.7094 7.46125 11.7575C7.36117 11.8051 7.27867 11.8812 7.21375 11.9865H7.20625V11.7388H6.7V14.3565H7.23273V13.4375H7.24023C7.30515 13.5327 7.38836 13.6046 7.48961 13.6534C7.59086 13.7019 7.70148 13.7265 7.82148 13.7265C7.96398 13.7265 8.08843 13.6991 8.19461 13.644C8.30078 13.5889 8.38961 13.5151 8.46086 13.4227C8.53353 13.3274 8.5876 13.2193 8.62023 13.104C8.65546 12.9821 8.67314 12.8558 8.67273 12.729C8.67273 12.5914 8.65515 12.4597 8.62023 12.3334C8.58811 12.2134 8.53329 12.1006 8.45875 12.0012ZM8.1175 12.9425C8.1025 13.0173 8.07672 13.0831 8.04062 13.1394C8.00429 13.1956 7.95695 13.2413 7.89812 13.2762C7.83929 13.3112 7.76617 13.3288 7.67875 13.3288C7.59367 13.3288 7.52125 13.3114 7.46125 13.2762C7.40284 13.2429 7.35332 13.1959 7.31687 13.1394C7.27894 13.079 7.25226 13.0123 7.23812 12.9425C7.22177 12.8673 7.2136 12.7905 7.21375 12.7135C7.21375 12.6336 7.22125 12.556 7.23625 12.4812C7.25125 12.4062 7.27679 12.3399 7.31312 12.2823C7.34922 12.2248 7.39679 12.178 7.45562 12.1416C7.51422 12.1055 7.58734 12.0873 7.675 12.0873C7.76008 12.0873 7.83179 12.1055 7.89062 12.1416C7.94945 12.1777 7.9975 12.2253 8.035 12.2839C8.0725 12.3427 8.09922 12.4095 8.11562 12.4845C8.13179 12.5595 8.14 12.6357 8.14 12.7133C8.14 12.7913 8.1325 12.8675 8.1175 12.9425ZM9.3925 11.7706C9.28492 11.8266 9.19562 11.9014 9.12437 11.9938C9.05135 12.0897 8.99669 12.1983 8.96312 12.3141C8.9267 12.4364 8.90839 12.5634 8.90875 12.691C8.90875 12.826 8.92679 12.9561 8.96312 13.081C8.99922 13.2059 9.05312 13.3168 9.12437 13.4129C9.19562 13.5092 9.28609 13.5854 9.39625 13.6416C9.50617 13.6979 9.6339 13.726 9.77875 13.726C9.89679 13.7279 10.0138 13.7043 10.1219 13.6566C10.2231 13.6105 10.3049 13.5345 10.3675 13.4298H10.375V13.6775H10.8812V11H10.3487V11.975H10.3412C10.282 11.8808 10.1967 11.8059 10.0956 11.7594C9.99304 11.7109 9.88095 11.6859 9.7675 11.6863C9.625 11.6863 9.50008 11.7144 9.3925 11.7706ZM10.1275 12.14C10.1849 12.1749 10.2318 12.2206 10.2681 12.2769C10.3042 12.3329 10.33 12.398 10.345 12.4719C10.36 12.5455 10.3675 12.6226 10.3675 12.7023C10.3675 12.7824 10.36 12.8598 10.345 12.9348C10.3316 13.0054 10.3062 13.0733 10.27 13.1354C10.2348 13.194 10.1882 13.2409 10.1294 13.276C10.0705 13.3109 9.99742 13.3285 9.91 13.3285C9.8275 13.3285 9.75672 13.3105 9.69812 13.2744C9.63939 13.2383 9.58942 13.1897 9.55187 13.1319C9.51198 13.0706 9.4834 13.0026 9.4675 12.9313C9.45012 12.8575 9.44131 12.782 9.44125 12.7062C9.44125 12.6261 9.44922 12.5492 9.46562 12.4756C9.48179 12.4018 9.50804 12.3362 9.54437 12.2788C9.58047 12.2213 9.62875 12.1752 9.68875 12.14C9.74875 12.1051 9.82257 12.0873 9.91 12.0873C9.99742 12.0875 10.0698 12.1051 10.1275 12.14ZM11.3987 13.6775H11.9312V12.095H12.2987V11.7385H11.9312V11.6225C11.9312 11.5423 11.9469 11.4856 11.9781 11.4516C12.0093 11.4181 12.0611 11.401 12.1337 11.401C12.2012 11.401 12.2662 11.4048 12.3287 11.4123V11.015C12.2837 11.0127 12.2373 11.0096 12.19 11.0056C12.1426 11.002 12.095 11.0002 12.0475 11.0002C11.83 11.0002 11.6673 11.0551 11.56 11.1652C11.4527 11.2752 11.3987 11.4163 11.3987 11.589V11.739H11.08V12.0955H11.3987V13.6775Z" fill="#565656"/>
<path d="M14 6H10V2.5V2M14 6V16H5V2H10M14 6L10 2" stroke="#565656" stroke-width="0.5"/>
<path d="M10.5 5.5V3L13 5.5H10.5Z" fill="#565656" stroke="#565656" stroke-width="0.5"/>
</svg>
