<svg width="18" height="18" viewBox="0 0 18 18" fill="none" xmlns="http://www.w3.org/2000/svg">
<path d="M3.98081 15.375C3.60196 15.375 3.28128 15.2437 3.01878 14.9812C2.75628 14.7187 2.62503 14.398 2.62503 14.0192V3.98078C2.62503 3.60193 2.75628 3.28125 3.01878 3.01875C3.28128 2.75625 3.60196 2.625 3.98081 2.625H14.0192C14.3981 2.625 14.7187 2.75625 14.9812 3.01875C15.2437 3.28125 15.375 3.60193 15.375 3.98078V14.0192C15.375 14.398 15.2437 14.7187 14.9812 14.9812C14.7187 15.2437 14.3981 15.375 14.0192 15.375H3.98081ZM3.98081 14.25H14.0192C14.0769 14.25 14.1298 14.2259 14.1779 14.1779C14.226 14.1298 14.25 14.0769 14.25 14.0192V3.98078C14.25 3.92308 14.226 3.87018 14.1779 3.82209C14.1298 3.77402 14.0769 3.74998 14.0192 3.74998H3.98081C3.92311 3.74998 3.87021 3.77402 3.82212 3.82209C3.77405 3.87018 3.75001 3.92308 3.75001 3.98078V14.0192C3.75001 14.0769 3.77405 14.1298 3.82212 14.1779C3.87021 14.2259 3.92311 14.25 3.98081 14.25ZM5.06255 12.5625H12.9952L10.5289 9.27403L8.42309 12.0144L6.92309 10.0962L5.06255 12.5625Z" fill="#565656"/>
</svg>
