<svg width="400" height="232" viewBox="0 0 400 232" fill="none" xmlns="http://www.w3.org/2000/svg">
<rect x="0.5" y="0.5" width="399" height="231" rx="7.5" stroke="#33BDF1" stroke-dasharray="20 12"/>
<path d="M186.667 124.041C183.024 123.777 179.563 122.438 176.778 120.213C173.992 117.988 172.025 114.992 171.157 111.652C170.289 108.312 170.564 104.799 171.943 101.615C173.323 98.4316 175.735 95.7393 178.837 93.923C179.497 89.0793 182.01 84.6279 185.905 81.4019C189.801 78.176 194.811 76.3965 200 76.3965C205.189 76.3965 210.199 78.176 214.095 81.4019C217.99 84.6279 220.503 89.0793 221.163 93.923C224.265 95.7393 226.678 98.4316 228.057 101.615C229.436 104.799 229.711 108.312 228.843 111.652C227.975 114.992 226.008 117.988 223.222 120.213C220.437 122.438 216.976 123.777 213.333 124.041V124.088H186.667V124.041ZM202.667 104.01H210.667L200 91.4608L189.333 104.01H197.333V114.049H202.667V104.01Z" fill="#33BDF1"/>
<path d="M174.338 152.006C174.338 152.927 174.712 153.387 175.459 153.387H175.719C175.833 153.387 175.89 153.576 175.89 153.955V154.03C175.89 154.422 175.833 154.618 175.719 154.618H175.507C175.042 154.618 174.652 154.483 174.338 154.214C174.338 155.331 174.049 156.185 173.47 156.778C172.891 157.375 172.034 157.673 170.899 157.673H170.585C168.119 157.673 166.887 156.425 166.887 153.927V151.596H168.076V153.92C168.076 155.597 168.912 156.436 170.585 156.436H170.947C172.456 156.436 173.21 155.634 173.21 154.03V145.505H174.345L174.338 152.006ZM177.749 156.88L178.727 155.896L179.711 156.88L178.727 157.865L177.749 156.88ZM175.343 156.88L176.327 155.896L177.305 156.88L176.327 157.865L175.343 156.88ZM175.657 153.387H177.592C178.07 153.387 178.419 153.289 178.638 153.093C178.861 152.897 178.973 152.556 178.973 152.068V150.058H180.162V152.075C180.162 153.77 179.308 154.618 177.599 154.618H175.657C175.543 154.618 175.486 154.422 175.486 154.03V153.955C175.486 153.576 175.543 153.387 175.657 153.387ZM184.599 154.03C184.599 154.422 184.546 154.618 184.441 154.618H184.127C182.641 154.618 181.898 153.763 181.898 152.054V145.505H183.033V152.061C183.033 152.945 183.405 153.387 184.147 153.387H184.441C184.546 153.387 184.599 153.576 184.599 153.955V154.03ZM184.366 153.387H186.896C187.616 153.387 188.103 153.31 188.358 153.155C188.614 152.995 188.741 152.736 188.741 152.375V152.205C188.299 152.246 187.951 152.266 187.695 152.266C186.875 152.266 186.264 152.113 185.863 151.808C185.462 151.498 185.262 151.008 185.262 150.338C185.262 149.618 185.465 149.035 185.87 148.588C186.28 148.142 186.852 147.918 187.586 147.918C188.324 147.918 188.887 148.117 189.274 148.513C189.662 148.91 189.855 149.454 189.855 150.147V152.328C189.855 153.107 189.621 153.683 189.151 154.057C188.682 154.431 187.925 154.618 186.882 154.618H184.366C184.252 154.618 184.195 154.422 184.195 154.03V153.955C184.195 153.576 184.252 153.387 184.366 153.387ZM187.6 149.087C187.208 149.087 186.907 149.19 186.697 149.395C186.492 149.6 186.39 149.889 186.39 150.263C186.39 150.587 186.494 150.803 186.704 150.913C186.914 151.022 187.262 151.077 187.75 151.077C188.046 151.077 188.372 151.054 188.728 151.008H188.741V150.126C188.741 149.803 188.643 149.55 188.447 149.368C188.251 149.181 187.969 149.087 187.6 149.087ZM186.581 145.656L187.586 144.651L188.591 145.656L187.586 146.661L186.581 145.656ZM198.024 153.387H203.664C204.808 153.387 205.38 152.788 205.38 151.589V150.243H206.569V151.569C206.569 153.601 205.594 154.618 203.644 154.618H198.045C197.056 154.618 196.309 154.365 195.803 153.859C195.301 153.353 195.051 152.599 195.051 151.596V150.222H196.24V151.589C196.24 152.788 196.835 153.387 198.024 153.387ZM199.802 156.88L200.807 155.875L201.812 156.88L200.807 157.885L199.802 156.88ZM210.985 154.03C210.985 154.422 210.933 154.618 210.828 154.618H210.514C209.028 154.618 208.285 153.763 208.285 152.054V145.505H209.42V152.061C209.42 152.945 209.791 153.387 210.534 153.387H210.828C210.933 153.387 210.985 153.576 210.985 153.955V154.03ZM213.788 146.852L214.793 145.847L215.798 146.852L214.793 147.857L213.788 146.852ZM210.753 153.387H212.975C213.936 153.387 214.816 153.178 215.613 152.758L217.603 151.822L216.215 151.056C215.627 150.728 215.078 150.564 214.567 150.564C214.28 150.564 214.016 150.614 213.774 150.714C213.537 150.815 213.278 150.976 212.995 151.2L212.51 151.589L211.724 150.708L212.141 150.352C212.564 149.997 212.963 149.735 213.337 149.566C213.711 149.397 214.107 149.313 214.526 149.313C215.169 149.313 215.821 149.504 216.481 149.887L217.773 150.632C218.197 150.878 218.63 151.047 219.072 151.138V152.369L217.951 152.902L217.938 152.909C218.257 153.228 218.683 153.387 219.216 153.387H220.043C220.148 153.387 220.2 153.576 220.2 153.955V154.03C220.2 154.422 220.148 154.618 220.043 154.618H219.236C218.689 154.618 218.245 154.511 217.903 154.296C217.566 154.082 217.274 153.775 217.028 153.374L216.215 153.811C215.235 154.349 214.16 154.618 212.988 154.618H210.753C210.639 154.618 210.582 154.422 210.582 154.03V153.955C210.582 153.576 210.639 153.387 210.753 153.387ZM222.859 147.748L223.837 146.763L224.821 147.748L223.837 148.732L222.859 147.748ZM220.453 147.748L221.438 146.763L222.415 147.748L221.438 148.732L220.453 147.748ZM219.981 153.387H221.663C222.237 153.387 222.654 153.278 222.914 153.059C223.178 152.84 223.311 152.505 223.311 152.054V150.291H224.479V152.054C224.479 152.51 224.589 152.847 224.808 153.066C225.026 153.28 225.389 153.387 225.895 153.387H226.045C226.15 153.387 226.202 153.576 226.202 153.955V154.03C226.202 154.422 226.15 154.618 226.045 154.618H225.901C225.405 154.618 225.004 154.542 224.698 154.392C224.393 154.242 224.138 154.007 223.933 153.688C223.696 154.007 223.395 154.242 223.03 154.392C222.666 154.542 222.199 154.618 221.629 154.618H219.981C219.868 154.618 219.811 154.422 219.811 154.03V153.955C219.811 153.576 219.868 153.387 219.981 153.387ZM225.983 153.387H227.371C227.85 153.387 228.198 153.289 228.417 153.093C228.64 152.897 228.752 152.556 228.752 152.068V150.058H229.941V152.075C229.941 153.77 229.082 154.618 227.364 154.618H225.983C225.869 154.618 225.812 154.422 225.812 154.03V153.955C225.812 153.576 225.869 153.387 225.983 153.387ZM227.911 147.604L228.916 146.599L229.921 147.604L228.916 148.609L227.911 147.604ZM231.678 145.499H232.812V154.611H231.678V145.499Z" fill="#565656"/>
</svg>
