<svg width="24" height="24" viewBox="0 0 24 24" fill="none" xmlns="http://www.w3.org/2000/svg">
<path d="M15.7731 12.973L14.6501 11.8499C14.8001 11.0217 14.5639 10.2772 13.9414 9.61627C13.319 8.95537 12.5552 8.69992 11.6501 8.84992L10.527 7.72687C10.7527 7.62559 10.9841 7.54963 11.2212 7.499C11.4584 7.44835 11.718 7.42302 12.0001 7.42302C13.1347 7.42302 14.0978 7.81885 14.8895 8.61052C15.6811 9.40219 16.077 10.3653 16.077 11.4999C16.077 11.782 16.0517 12.0448 16.001 12.2884C15.9504 12.532 15.8744 12.7602 15.7731 12.973ZM18.9539 16.0845L17.8501 15.0499C18.4834 14.5666 19.0459 14.0374 19.5376 13.4624C20.0292 12.8874 20.4501 12.2333 20.8001 11.4999C19.9667 9.81659 18.7709 8.47909 17.2126 7.48742C15.6542 6.49575 13.9167 5.99992 12.0001 5.99992C11.5167 5.99992 11.0417 6.03325 10.5751 6.09992C10.1084 6.16659 9.65007 6.26659 9.20007 6.39992L8.03472 5.23457C8.66677 4.98329 9.31228 4.79803 9.97125 4.6788C10.6302 4.55956 11.3065 4.49995 12.0001 4.49995C14.3437 4.49995 16.4571 5.1461 18.3404 6.4384C20.2238 7.73071 21.5975 9.41789 22.4616 11.4999C22.0911 12.3935 21.6125 13.2275 21.026 14.0018C20.4395 14.7762 19.7488 15.4704 18.9539 16.0845ZM19.7616 21.8691L15.7155 17.8537C15.2027 18.0435 14.6344 18.1986 14.0107 18.3191C13.3869 18.4396 12.7167 18.4999 12.0001 18.4999C9.65009 18.4999 7.53664 17.8537 5.65972 16.5614C3.78281 15.2691 2.40909 13.582 1.53857 11.4999C1.90781 10.6166 2.38473 9.79255 2.96935 9.0278C3.55397 8.26306 4.19756 7.59993 4.90012 7.0384L2.13087 4.2384L3.18472 3.18457L20.8154 20.8153L19.7616 21.8691ZM5.95395 8.0922C5.42575 8.51271 4.91197 9.01817 4.4126 9.60857C3.91323 10.199 3.50906 10.8294 3.20007 11.4999C4.03341 13.1833 5.22924 14.5208 6.78757 15.5124C8.34591 16.5041 10.0834 16.9999 12.0001 16.9999C12.4552 16.9999 12.9084 16.9615 13.3597 16.8845C13.811 16.8076 14.1937 16.7281 14.5078 16.6461L13.2424 15.3499C13.0719 15.4191 12.8744 15.4742 12.6501 15.5153C12.4257 15.5563 12.2091 15.5768 12.0001 15.5768C10.8655 15.5768 9.90234 15.181 9.11067 14.3893C8.31901 13.5977 7.92317 12.6345 7.92317 11.4999C7.92317 11.2974 7.94369 11.0855 7.98472 10.8643C8.02576 10.6432 8.08088 10.4409 8.1501 10.2576L5.95395 8.0922Z" fill="#B3B3B3"/>
</svg>
