<svg width="22" height="19" viewBox="0 0 22 19" fill="none" xmlns="http://www.w3.org/2000/svg">
<path fill-rule="evenodd" clip-rule="evenodd" d="M21.5601 14.3001L13.8901 1.58006C13.2598 0.59406 12.1703 -0.00256348 11.0001 -0.00256348C9.82987 -0.00256348 8.74038 0.59406 8.1101 1.58006L0.440101 14.3001C-0.111353 15.2193 -0.130414 16.3629 0.390101 17.3001C0.992074 18.3552 2.11533 19.0047 3.3301 19.0001H18.6701C19.8766 19.0129 20.9979 18.3798 21.6101 17.3401C22.1462 16.3927 22.1271 15.2293 21.5601 14.3001ZM11.0001 15.0001C10.4478 15.0001 10.0001 14.5523 10.0001 14.0001C10.0001 13.4478 10.4478 13.0001 11.0001 13.0001C11.5524 13.0001 12.0001 13.4478 12.0001 14.0001C12.0001 14.5523 11.5524 15.0001 11.0001 15.0001ZM11.0001 12.0001C11.5524 12.0001 12.0001 11.5523 12.0001 11.0001V7.00006C12.0001 6.44778 11.5524 6.00006 11.0001 6.00006C10.4478 6.00006 10.0001 6.44778 10.0001 7.00006V11.0001C10.0001 11.5523 10.4478 12.0001 11.0001 12.0001Z" fill="#000"/>
</svg>
