<svg width="136" height="40" viewBox="0 0 136 40" fill="none" xmlns="http://www.w3.org/2000/svg">
<g clip-path="url(#clip0_182_949)">
<path fill-rule="evenodd" clip-rule="evenodd" d="M19.1643 17.5599C18.5103 20.1894 18.2997 27.0975 14.8194 25.649C11.5385 24.2897 5.07658 23.2758 0.0333862 23.8552C0.0333862 20.8691 0.166394 15.9109 3.62458 15.3761C8.03599 14.6964 14.5533 15.4318 19.1643 17.5599Z" fill="#35537D"/>
<path fill-rule="evenodd" clip-rule="evenodd" d="M26.0806 0.0891113C26.0806 6.99719 26.3134 9.11418 18.7874 10.5627C8.72315 12.5014 2.16145 16.7354 0.0222473 23.8551C0.0222473 5.96098 8.24653 1.94984 26.0806 0.0891113Z" fill="#00ABE4"/>
<path fill-rule="evenodd" clip-rule="evenodd" d="M19.1642 17.5599C19.1642 24.2563 19.5411 25.883 12.5471 27.9331C6.68369 29.649 2.10603 33.6156 0.0222473 39.9888C0.0222473 25.2368 3.91271 20.6462 19.1642 17.5599Z" fill="#00ABE4"/>
<path d="M86.1001 25.8719C85.9338 25.883 85.7232 25.8942 85.4572 25.8942C85.2134 25.8942 84.9695 25.883 84.7367 25.8607C84.504 25.8496 84.3045 25.8162 84.1604 25.7827L84.1271 22.4067H82.4424V25.7827C82.0544 25.8607 81.6 25.8942 81.0569 25.8942C80.4251 25.8942 79.9152 25.8496 79.5273 25.7493L79.494 22.4067H77.8093V25.7939L75.3043 25.805C74.739 25.805 74.34 25.7827 74.1072 25.7382C73.8745 25.6936 73.6417 25.5822 73.3868 25.3928C73.1319 25.2034 72.6885 24.8134 72.0567 24.2229L70.2611 22.5738C69.2303 23.766 68.532 24.5571 68.1662 24.9359C67.8005 25.3148 67.479 25.5599 67.2352 25.649C66.9913 25.7493 66.5923 25.7939 66.0714 25.7939H65.5504C65.0073 25.7939 64.5307 25.7159 64.1317 25.571V22.2173H62.458L62.4469 25.5933C62.2142 25.6602 61.9703 25.7159 61.6932 25.7382C61.4161 25.7716 61.0725 25.7827 60.6402 25.7827H60.6292H60.0528C59.6316 25.7827 59.3102 25.727 59.1107 25.6268C58.9112 25.5265 58.7782 25.3705 58.7116 25.1811C58.6451 24.9805 58.5897 24.6797 58.5565 24.2563L58.235 20.8245L56.4173 21.3036L57.2486 25.727C56.9936 25.7939 56.6611 25.8496 56.2288 25.9053C55.7966 25.9499 55.3865 25.9722 54.9985 25.9722C54.5108 25.9722 54.134 25.9387 53.868 25.8719V24.2229H52.2386L52.2275 25.6379C52.2275 26.2173 52.3162 26.663 52.4825 26.9972C52.6598 27.3315 52.9369 27.5766 53.3248 27.7103C53.7128 27.8552 54.2337 27.9332 54.9099 27.9332C55.5195 27.9332 56.0847 27.844 56.6168 27.6769C57.1377 27.4986 57.5922 27.2646 57.969 26.9638C58.5897 27.4652 59.2769 27.7215 60.0306 27.7215H60.4518H60.6181C61.0725 27.7103 61.527 27.6435 61.9592 27.532C62.4469 27.3983 62.9014 27.2089 63.3004 26.9749C63.7105 27.2201 64.0763 27.4095 64.3977 27.532C64.7191 27.6658 65.0406 27.7326 65.3731 27.7326H65.5394H66.1268C66.4261 27.7326 66.7032 27.6769 66.9692 27.5655C67.2352 27.4541 67.4901 27.2869 67.7451 27.0752C67.9002 27.5655 68.1108 28 68.3879 28.39C68.665 28.78 68.9754 29.0808 69.3411 29.3036C69.7069 29.5265 70.0838 29.6379 70.4717 29.6379C70.8818 29.6379 71.2698 29.5265 71.6355 29.3148C71.9902 29.1031 72.3006 28.8022 72.5555 28.4123C72.8104 28.0334 72.9878 27.5878 73.0875 27.0752C73.4865 27.2981 73.8523 27.4652 74.1959 27.5655C74.5395 27.6657 74.9053 27.7215 75.2932 27.7215H75.3154H75.8807H75.9139C76.4792 27.7215 77.0112 27.6769 77.4768 27.5766C77.9534 27.4875 78.3413 27.3538 78.6406 27.1755C78.962 27.3649 79.3167 27.5098 79.7157 27.61C80.1147 27.7103 80.5359 27.7549 80.9793 27.7549C81.4116 27.7549 81.8328 27.6992 82.2318 27.5878C82.6419 27.4763 82.9855 27.3203 83.2737 27.1198C83.972 27.5543 84.6148 27.766 85.2244 27.766C85.7011 27.766 86.1222 27.6658 86.4991 27.4763C86.8649 27.2758 87.153 27.0084 87.3636 26.6518C87.5632 26.2953 87.674 25.8942 87.674 25.4485V21.3259L85.7897 21.6045L86.1001 25.8719ZM71.6466 26.9638C71.5247 27.1532 71.3695 27.2981 71.1922 27.3983C71.0148 27.4986 70.8486 27.5432 70.6712 27.5432C70.372 27.5432 70.0727 27.4206 69.7845 27.1755C69.4963 26.9304 69.2636 26.6073 69.0862 26.1839L70.3387 24.9137L71.9348 26.2953C71.8794 26.5515 71.7796 26.7744 71.6466 26.9638Z" fill="black"/>
<path d="M129.616 29.337L128.396 28.2117L127.321 29.2145L126.224 28.2006L125.005 29.337L126.224 30.4513L127.31 29.4596L128.396 30.4624L129.616 29.337Z" fill="black"/>
<path d="M47.8161 26.1615C48.06 25.6156 48.1819 24.8133 48.1819 23.7437C48.1819 22.7855 48.0489 21.9721 47.7829 21.3147C47.5169 20.6462 47.14 20.156 46.6523 19.8217C46.1646 19.4874 45.5883 19.3203 44.9122 19.3203C44.1695 19.3203 43.6042 19.6211 43.2496 20.2228C42.8838 20.8245 42.7064 21.7493 42.7064 23.0083C42.7064 23.7994 42.906 24.3788 43.2939 24.7354C43.6818 25.103 44.2582 25.2813 45.0119 25.2813C45.3444 25.2813 45.7878 25.2479 46.3531 25.1699C46.4196 25.1588 46.5304 25.1476 46.6856 25.1253L46.6191 25.8161H43.571H40.8887H40.7889L40.534 22.0835L38.6719 22.5404L39.3813 26.6741C39.0931 27.3203 38.7162 27.8106 38.2618 28.1225C37.8073 28.4234 37.2531 28.5905 36.577 28.5905H35.7457V30.4178C36.1447 30.5181 36.5216 30.5738 36.8874 30.5738C37.4527 30.5738 37.9736 30.4401 38.4724 30.1838C38.9601 29.9276 39.3923 29.5599 39.747 29.0808C40.1128 28.6017 40.3899 28.0445 40.5783 27.4094C40.8443 27.5209 41.1104 27.5989 41.3431 27.6657C41.587 27.7214 42.6399 27.7549 42.906 27.7549H43.5599V27.7437C44.7791 27.7103 45.6991 27.5877 46.3309 27.376C47.0846 27.1086 47.5723 26.7075 47.8161 26.1615ZM45.2225 23.4429C44.9343 23.4429 44.7126 23.4206 44.5464 23.376C44.3801 23.3315 44.2693 23.2535 44.1917 23.142C44.1252 23.0418 44.0809 22.8969 44.0809 22.7186C44.0809 22.3287 44.1141 21.8161 44.1917 21.1588H44.491C44.9897 21.1588 45.4109 21.2367 45.7213 21.4039C46.0316 21.571 46.2755 21.8161 46.4306 22.1504C46.5858 22.4847 46.6856 22.9081 46.7299 23.4429H45.2225Z" fill="black"/>
<path d="M35.4686 22.8747C35.1029 21.9833 34.6041 21.1922 33.9723 20.5014L32.7198 22.0724C33.2518 22.6741 33.6841 23.2981 34.0055 23.9443C34.3381 24.5905 34.5154 25.2256 34.5487 25.8273C34.3713 25.883 34.0942 25.9387 33.7284 25.9722C33.3627 26.0056 32.9858 26.0279 32.5868 26.0279C31.9993 26.0279 31.5782 25.9833 31.3232 25.9053V24.2674H29.6939L29.6828 25.6602C29.6828 26.2396 29.7715 26.6852 29.9377 27.0195C30.1151 27.3538 30.3922 27.5989 30.7801 27.7437C31.1681 27.8886 31.7001 27.9666 32.3651 27.9666C33.141 27.9666 33.806 27.8774 34.3491 27.688C34.8923 27.4986 35.3024 27.2201 35.5905 26.8635C35.8787 26.4958 36.0228 26.0613 36.0228 25.5488C36.0228 24.6685 35.8344 23.766 35.4686 22.8747Z" fill="black"/>
<path d="M133.373 28.2451L132.043 29.6045L133.373 30.9526L134.714 29.6045L133.373 28.2451Z" fill="black"/>
<path d="M135.424 26.4847C135.767 26.0836 135.945 25.6268 135.945 25.1142C135.945 24.6685 135.934 24.0669 135.9 23.2869C135.867 22.507 135.834 21.8385 135.8 21.2702L133.927 21.6713L134.36 25.4039C134.094 25.5376 133.728 25.6379 133.284 25.7048C132.841 25.7716 132.342 25.8162 131.799 25.8162H131.223C130.68 25.8162 130.203 25.7382 129.804 25.5933V22.2396H128.141L128.13 25.6156C127.898 25.6825 127.643 25.7382 127.377 25.7605C127.1 25.7939 126.756 25.805 126.324 25.805H125.747C125.171 25.805 124.772 25.7827 124.55 25.7382C124.318 25.6936 124.074 25.5822 123.819 25.3928C123.564 25.2034 123.12 24.8134 122.489 24.2229L120.693 22.5738C119.673 23.766 118.964 24.5571 118.598 24.9359C118.232 25.3148 117.911 25.5599 117.667 25.649C117.412 25.7493 117.024 25.7939 116.503 25.7939H115.982C115.484 25.7939 115.118 25.7048 114.885 25.5376C114.652 25.3705 114.53 25.1031 114.53 24.7354L114.519 19.8329L112.546 20.078L112.646 20.9805C111.626 21.2256 110.862 21.4819 110.363 21.7716C109.853 22.0502 109.498 22.4178 109.288 22.8858C109.077 23.3538 108.977 24 108.977 24.8357C108.977 25.1699 108.988 25.5265 109.022 25.9276L109.088 27.0752L113.267 27.0864L113.522 26.3844C113.766 26.8524 114.087 27.1978 114.497 27.4095C114.907 27.6212 115.395 27.7215 115.96 27.7215H115.971H116.559C116.858 27.7215 117.135 27.6658 117.401 27.5543C117.667 27.4429 117.922 27.2758 118.177 27.0641C118.332 27.5543 118.543 27.9889 118.82 28.3788C119.097 28.7688 119.407 29.0697 119.773 29.2925C120.139 29.5153 120.516 29.6268 120.904 29.6268C121.314 29.6268 121.702 29.5153 122.067 29.3036C122.422 29.0919 122.733 28.7911 122.987 28.4011C123.242 28.0223 123.42 27.5766 123.519 27.0641C123.919 27.2869 124.284 27.4541 124.628 27.5543C124.971 27.6546 125.337 27.7103 125.725 27.7103H125.747H126.146H126.346V27.6992C126.789 27.688 127.222 27.6212 127.654 27.5098C128.141 27.3761 128.596 27.1866 129.006 26.9527C129.416 27.1978 129.782 27.3872 130.103 27.5098C130.425 27.6435 130.746 27.7103 131.079 27.7103H131.245H131.832C132.653 27.7103 133.384 27.5989 134.016 27.3761C134.592 27.1866 135.08 26.8747 135.424 26.4847ZM110.363 25.1588C110.352 25.0585 110.352 24.9248 110.352 24.7577C110.352 24.3566 110.418 24.0557 110.562 23.844C110.706 23.6435 110.928 23.4763 111.238 23.3649C111.549 23.2424 112.092 23.0864 112.868 22.8858L113.001 25.1588H110.363ZM122.045 26.9638C121.912 27.1532 121.757 27.2981 121.591 27.3983C121.414 27.4986 121.247 27.5432 121.07 27.5432C120.771 27.5432 120.471 27.4206 120.183 27.1755C119.895 26.9304 119.662 26.6073 119.485 26.1839L120.737 24.9137L122.322 26.2841C122.267 26.5515 122.178 26.7744 122.045 26.9638Z" fill="black"/>
<path d="M64.5418 20.4903L63.2007 19.1309L61.8595 20.4903L63.2007 21.8384L64.5418 20.4903Z" fill="black"/>
<path d="M83.3402 19.922L84.4486 21.0474L85.69 19.7995L84.4486 18.5404L83.3291 19.6658L82.2096 18.5404L80.9682 19.7995L82.2096 21.0474L83.3402 19.922Z" fill="black"/>
<path d="M84.5594 17.883L83.318 16.624L82.0877 17.883L83.318 19.1309L84.5594 17.883Z" fill="black"/>
<path d="M46.3087 17.4151L44.9786 16.0557L43.6375 17.4151L44.9786 18.7632L46.3087 17.4151Z" fill="black"/>
<path d="M102.527 20.6462C101.828 20.3454 100.742 19.9554 99.2789 19.4652L99.0129 19.376L98.7912 20.39C98.2924 20.546 97.8602 20.7799 97.5055 21.0919C97.1397 21.4039 96.8626 21.7827 96.6631 22.2173C96.4636 22.6518 96.3749 23.1309 96.3749 23.6546C96.3749 24.0891 96.4747 24.4902 96.6742 24.8579C96.8737 25.2256 97.1508 25.5376 97.5277 25.7939H96.1089L94.4352 25.7827C94.3909 24.234 94.1138 23.0752 93.5929 22.3064C93.0719 21.5376 92.296 21.1476 91.2763 21.1476C90.5669 21.1476 90.0238 21.3036 89.6581 21.6379C89.2923 21.961 89.0484 22.4067 88.9376 22.9749C88.8157 23.5432 88.7603 24.2674 88.7603 25.1588C88.7603 25.7604 88.8489 26.2395 89.0263 26.6184C89.2036 26.9972 89.4807 27.2758 89.8465 27.454C90.2233 27.6323 90.6999 27.7214 91.2874 27.7214C91.8638 27.7214 92.3958 27.6992 92.8724 27.6434C92.7948 27.922 92.6396 28.1337 92.3958 28.2674C92.163 28.4011 91.897 28.4902 91.6088 28.5237C91.3206 28.5571 90.9881 28.5682 90.6002 28.5682H88.8157V30.3175C89.5361 30.429 90.1679 30.4847 90.7221 30.4847C91.7862 30.4847 92.5953 30.2618 93.1717 29.8162C93.748 29.3705 94.1249 28.6685 94.3022 27.7103H95.5325H96.1089C96.6631 27.7103 97.1397 27.6769 97.5498 27.61C97.9488 27.5432 98.3257 27.4206 98.6804 27.2535C99.0351 27.0752 99.3787 26.8412 99.7223 26.5292H104.61L104.765 23.8329C104.765 23.7772 104.777 23.688 104.777 23.5766C104.777 22.8301 104.577 22.2284 104.167 21.7716C103.779 21.337 103.236 20.9582 102.527 20.6462ZM91.4869 25.8161C91.1433 25.8161 90.8773 25.7939 90.711 25.7382C90.5448 25.6824 90.4228 25.5822 90.3563 25.4485C90.2898 25.3036 90.2566 25.1031 90.2566 24.8245C90.2566 24.2785 90.2788 23.7214 90.3342 23.1532C90.5669 23.1086 90.8108 23.0975 91.0546 23.0975C91.4758 23.0975 91.8083 23.1755 92.0522 23.3426C92.296 23.5097 92.4623 23.7883 92.5842 24.1671C92.6951 24.5571 92.7616 25.1031 92.7726 25.8161H91.4869ZM99.8664 24.6797L99.3343 24.7019C99.0018 24.7131 98.7247 24.6797 98.503 24.5682C98.2703 24.4568 98.104 24.312 97.9932 24.1114C97.8823 23.9109 97.8158 23.688 97.8158 23.4206C97.8158 23.1532 97.8934 22.9081 98.0264 22.6964C98.1705 22.4847 98.359 22.3064 98.6139 22.1838C98.8688 22.0613 99.157 21.9944 99.4674 21.9944C99.6558 21.9944 99.7777 22.0056 99.8553 22.0167V24.6797H99.8664ZM103.369 24.0668L103.325 24.8356L101.285 24.8245L101.329 22.0613C101.884 22.2618 102.316 22.4512 102.604 22.6407C102.892 22.8301 103.103 23.0306 103.214 23.2535C103.336 23.4652 103.38 23.7437 103.369 24.0668Z" fill="black"/>
<path d="M28.0091 27.3426L27.9981 18.507L26.0916 18.7409L26.402 27.3426H28.0091Z" fill="black"/>
<path d="M44.4466 33.571C44.1695 33.4262 43.8592 33.3593 43.4934 33.3593H42.0746V36.7354H43.4934C43.8481 36.7354 44.1695 36.6685 44.4466 36.5237C44.7237 36.3788 44.9343 36.1783 45.0895 35.9331C45.2447 35.6769 45.3112 35.3872 45.3112 35.0529C45.3112 34.7186 45.2336 34.429 45.0895 34.1727C44.9343 33.9164 44.7237 33.7159 44.4466 33.571ZM44.6683 35.7103C44.5574 35.8997 44.4023 36.0557 44.1917 36.156C43.9811 36.2674 43.7372 36.312 43.4712 36.312H42.5623V33.7716H43.4712C43.7372 33.7716 43.9811 33.8273 44.1917 33.9276C44.4023 34.039 44.5574 34.1838 44.6683 34.3732C44.7791 34.5627 44.8345 34.7855 44.8345 35.0418C44.8345 35.298 44.7791 35.5209 44.6683 35.7103Z" fill="black"/>
<path d="M26.3576 36.7354H26.8453V35.376H28.5301V34.9638H26.8453V33.7827H28.7296V33.3593H26.3576V36.7354Z" fill="black"/>
<path d="M39.1707 35.1978C39.3037 35.0084 39.3591 34.7967 39.3591 34.5293C39.3591 34.1616 39.2372 33.8719 38.9822 33.6602C38.7384 33.4485 38.3948 33.3482 37.9514 33.3482H36.6435V36.7243H37.1201V35.6992H37.9514C38.0068 35.6992 38.0734 35.6992 38.162 35.688L38.8825 36.7243H39.4034L38.6054 35.5878C38.8603 35.5209 39.0487 35.3872 39.1707 35.1978ZM37.9514 35.2981H37.1312V33.7827H37.9514C38.2507 33.7827 38.4835 33.8496 38.6497 33.9833C38.8049 34.117 38.8936 34.2953 38.8936 34.5404C38.8936 34.7855 38.816 34.9749 38.6497 35.1087C38.4835 35.2312 38.2507 35.2981 37.9514 35.2981Z" fill="black"/>
<path d="M32.2099 33.3593L30.6914 36.7354H31.1902L31.556 35.8886H33.3405L33.7063 36.7354H34.2161L32.6865 33.3593H32.2099ZM31.7222 35.5097L32.4427 33.8607L33.1632 35.5097H31.7222Z" fill="black"/>
<path d="M133.983 35.2312H135.667V34.8189H133.983V33.7827H135.878V33.3593H133.506V36.7354H135.945V36.3231H133.983V35.2312Z" fill="black"/>
<path d="M70.9927 33.3593L69.4742 36.7354H69.973L70.3387 35.8886H72.1232L72.489 36.7354H72.9989L71.4693 33.3593H70.9927ZM70.505 35.5097L71.2254 33.8607L71.9459 35.5097H70.505Z" fill="black"/>
<path d="M124.661 35.8774L122.644 33.3593H122.256V36.7354H122.733V34.2173L124.75 36.7354H125.149V33.3593H124.661V35.8774Z" fill="black"/>
<path d="M97.2727 35.8774L95.2554 33.3593H94.8675V36.7354H95.3441V34.2173L97.3614 36.7354H97.7604V33.3593H97.2727V35.8774Z" fill="black"/>
<path d="M91.9191 33.3593H91.4425V36.7354H91.9191V33.3593Z" fill="black"/>
<path d="M102.427 35.0306C102.272 34.9749 102.072 34.9081 101.817 34.8412C101.629 34.7967 101.473 34.7521 101.352 34.7187C101.23 34.6852 101.141 34.6184 101.063 34.5515C100.986 34.4847 100.953 34.3844 100.953 34.273C100.953 34.117 101.019 33.9833 101.163 33.883C101.296 33.7827 101.507 33.7382 101.773 33.7382C101.928 33.7382 102.083 33.7604 102.249 33.805C102.405 33.8496 102.56 33.9164 102.704 34.0056L102.859 33.6156C102.726 33.5153 102.56 33.4485 102.36 33.3928C102.172 33.337 101.972 33.3148 101.773 33.3148C101.485 33.3148 101.252 33.3593 101.063 33.4485C100.875 33.5376 100.731 33.649 100.631 33.7939C100.542 33.9387 100.487 34.1058 100.487 34.2841C100.487 34.4958 100.542 34.6741 100.653 34.7967C100.764 34.9192 100.897 35.0195 101.052 35.0752C101.207 35.1309 101.418 35.1978 101.662 35.2646C101.861 35.3092 102.017 35.3538 102.127 35.3983C102.238 35.4429 102.327 35.4875 102.405 35.5655C102.482 35.6435 102.515 35.7326 102.515 35.844C102.515 36 102.449 36.1226 102.305 36.2228C102.172 36.312 101.961 36.3677 101.684 36.3677C101.473 36.3677 101.263 36.3343 101.074 36.2563C100.875 36.1783 100.709 36.0891 100.587 35.9777L100.409 36.3565C100.542 36.4791 100.731 36.5794 100.964 36.6685C101.196 36.7465 101.44 36.7799 101.695 36.7799C101.983 36.7799 102.216 36.7354 102.416 36.6574C102.615 36.5682 102.759 36.4568 102.859 36.312C102.948 36.1671 103.003 36 103.003 35.8329C103.003 35.6212 102.948 35.454 102.837 35.3203C102.715 35.1866 102.582 35.0975 102.427 35.0306Z" fill="black"/>
<path d="M117.811 33.3593L116.293 36.7354H116.78L117.157 35.8886H118.942L119.308 36.7354H119.817L118.288 33.3593H117.811ZM117.324 35.5097L118.044 33.8607L118.776 35.5097H117.324Z" fill="black"/>
<path d="M113.888 35.1978C114.021 35.0084 114.076 34.7967 114.076 34.5293C114.076 34.1616 113.954 33.8719 113.699 33.6602C113.455 33.4485 113.112 33.3482 112.668 33.3482H111.36V36.7243H111.837V35.6992H112.668C112.713 35.6992 112.79 35.6992 112.879 35.688L113.61 36.7243H114.131L113.333 35.5878C113.577 35.5209 113.755 35.3872 113.888 35.1978ZM112.668 35.2981H111.848V33.7827H112.668C112.968 33.7827 113.2 33.8496 113.367 33.9833C113.522 34.117 113.61 34.2953 113.61 34.5404C113.61 34.7855 113.533 34.9749 113.367 35.1087C113.2 35.2312 112.968 35.2981 112.668 35.2981Z" fill="black"/>
<path d="M59.1772 35.0306C59.022 34.9749 58.8225 34.9081 58.5676 34.8412C58.3791 34.7967 58.224 34.7521 58.102 34.7187C57.9912 34.6741 57.8914 34.6184 57.8138 34.5515C57.7363 34.4847 57.703 34.3844 57.703 34.273C57.703 34.117 57.7695 33.9833 57.9136 33.883C58.0466 33.7827 58.2572 33.7382 58.5232 33.7382C58.6784 33.7382 58.8336 33.7604 58.9887 33.805C59.155 33.8496 59.2991 33.9164 59.4432 34.0056L59.5984 33.6156C59.4654 33.5153 59.2991 33.4485 59.0996 33.3928C58.9112 33.337 58.7116 33.3148 58.5121 33.3148C58.224 33.3148 57.9912 33.3593 57.8028 33.4485C57.6143 33.5376 57.4702 33.649 57.3705 33.7939C57.2818 33.9387 57.2264 34.1058 57.2264 34.2841C57.2264 34.4958 57.2818 34.6741 57.3927 34.7967C57.5035 34.9192 57.6365 35.0195 57.7917 35.0752C57.9469 35.1309 58.1574 35.1978 58.4013 35.2646C58.6008 35.3092 58.756 35.3538 58.8668 35.3983C58.9777 35.4429 59.0774 35.4875 59.1439 35.5655C59.2215 35.6435 59.2548 35.7326 59.2548 35.844C59.2548 36 59.1883 36.1226 59.0442 36.2228C58.9112 36.312 58.7006 36.3677 58.4235 36.3677C58.2129 36.3677 58.0023 36.3343 57.8138 36.2563C57.6143 36.1783 57.4481 36.0891 57.3262 35.9777L57.1488 36.3565C57.2818 36.4791 57.4702 36.5794 57.703 36.6685C57.9358 36.7465 58.1796 36.7799 58.4345 36.7799C58.7227 36.7799 58.9555 36.7354 59.155 36.6574C59.3545 36.5682 59.4986 36.4568 59.5873 36.312C59.687 36.1671 59.7314 36 59.7314 35.8329C59.7314 35.6212 59.6759 35.454 59.5651 35.3203C59.4543 35.1866 59.3213 35.0975 59.1772 35.0306Z" fill="black"/>
<path d="M128.94 33.9165C129.139 33.805 129.372 33.7493 129.616 33.7493C129.992 33.7493 130.303 33.883 130.558 34.1504L130.868 33.8496C130.713 33.6713 130.524 33.5488 130.314 33.4596C130.092 33.3705 129.859 33.3259 129.593 33.3259C129.261 33.3259 128.951 33.4039 128.673 33.5488C128.407 33.7048 128.186 33.9053 128.031 34.1616C127.875 34.4178 127.798 34.7187 127.798 35.0418C127.798 35.3649 127.875 35.6658 128.031 35.922C128.186 36.1894 128.396 36.39 128.673 36.5348C128.94 36.6908 129.25 36.7577 129.582 36.7577C129.837 36.7577 130.081 36.7131 130.303 36.624C130.524 36.5348 130.713 36.4011 130.857 36.2229L130.547 35.922C130.292 36.1894 129.97 36.3343 129.605 36.3343C129.361 36.3343 129.128 36.2786 128.928 36.1672C128.729 36.0557 128.574 35.8997 128.452 35.6992C128.341 35.4986 128.274 35.2758 128.274 35.0307C128.274 34.7855 128.33 34.5627 128.452 34.3621C128.585 34.1839 128.74 34.0279 128.94 33.9165Z" fill="black"/>
<path d="M66.0936 33.3593L64.7081 35.7326L63.3115 33.3593H62.9125V36.7354H63.378V34.2952L64.5862 36.3342H64.8078L66.0271 34.273V36.7354H66.4926V33.3593H66.0936Z" fill="black"/>
<path d="M48.9578 33.3593L47.4393 36.7354H47.927L48.3038 35.8886H50.0883L50.4541 36.7354H50.964L49.4344 33.3593H48.9578ZM48.459 35.5097L49.1795 33.8607L49.911 35.5097H48.459Z" fill="black"/>
<path d="M81.4227 33.7827H82.5643V36.7354H83.0409V33.7827H84.1937V33.3593H81.4227V33.7827Z" fill="black"/>
<path d="M107.98 35.2646C107.98 35.6323 107.902 35.8997 107.736 36.078C107.57 36.2562 107.337 36.3454 107.027 36.3454C106.395 36.3454 106.084 35.9777 106.084 35.2646V33.3593H105.608V35.2757C105.608 35.7549 105.73 36.1337 105.985 36.39C106.228 36.6462 106.583 36.7688 107.027 36.7688C107.47 36.7688 107.825 36.6462 108.068 36.39C108.312 36.1337 108.445 35.766 108.445 35.2757V33.3593H107.98V35.2646Z" fill="black"/>
<path d="M78.4965 35.1978C78.6295 35.0084 78.6849 34.7967 78.6849 34.5293C78.6849 34.1616 78.563 33.8719 78.3081 33.6602C78.0642 33.4485 77.7206 33.3482 77.2773 33.3482H75.9694V36.7243H76.446V35.6992H77.2773C77.3327 35.6992 77.3992 35.6992 77.4879 35.688L78.2083 36.7243H78.7293L77.9312 35.5878C78.1861 35.5209 78.3746 35.3872 78.4965 35.1978ZM77.2773 35.2981H76.457V33.7827H77.2773C77.5765 33.7827 77.8093 33.8496 77.9756 33.9833C78.1418 34.117 78.2194 34.2953 78.2194 34.5404C78.2194 34.7855 78.1418 34.9749 77.9756 35.1087C77.8093 35.2312 77.5765 35.2981 77.2773 35.2981Z" fill="black"/>
</g>
<defs>
<clipPath id="clip0_182_949">
<rect width="136" height="40" fill="white"/>
</clipPath>
</defs>
</svg>
