<svg width="22" height="15" viewBox="0 0 22 15" fill="none" xmlns="http://www.w3.org/2000/svg">
<path d="M11.0023 11.5769C12.1354 11.5769 13.0977 11.1803 13.8894 10.3871C14.6811 9.59394 15.0769 8.6308 15.0769 7.4977C15.0769 6.36462 14.6803 5.40224 13.8871 4.61058C13.094 3.81891 12.1308 3.42308 10.9977 3.42308C9.86464 3.42308 8.90227 3.81966 8.1106 4.61282C7.31893 5.40601 6.9231 6.36915 6.9231 7.50225C6.9231 8.63533 7.31968 9.59771 8.11285 10.3894C8.90603 11.181 9.86917 11.5769 11.0023 11.5769ZM11 10.2C10.25 10.2 9.6125 9.93748 9.0875 9.41248C8.5625 8.88748 8.3 8.24998 8.3 7.49998C8.3 6.74998 8.5625 6.11248 9.0875 5.58748C9.6125 5.06248 10.25 4.79998 11 4.79998C11.75 4.79998 12.3875 5.06248 12.9125 5.58748C13.4375 6.11248 13.7 6.74998 13.7 7.49998C13.7 8.24998 13.4375 8.88748 12.9125 9.41248C12.3875 9.93748 11.75 10.2 11 10.2ZM11.0014 14.5C8.70176 14.5 6.60643 13.8657 4.7154 12.5971C2.82438 11.3285 1.43208 9.62946 0.538498 7.49998C1.43208 5.37049 2.82393 3.67146 4.71405 2.40288C6.60415 1.13429 8.69901 0.5 10.9986 0.5C13.2982 0.5 15.3936 1.13429 17.2846 2.40288C19.1756 3.67146 20.5679 5.37049 21.4615 7.49998C20.5679 9.62946 19.1761 11.3285 17.2859 12.5971C15.3958 13.8657 13.301 14.5 11.0014 14.5ZM11 13C12.8833 13 14.6125 12.5041 16.1875 11.5125C17.7625 10.5208 18.9667 9.18331 19.8 7.49998C18.9667 5.81664 17.7625 4.47914 16.1875 3.48748C14.6125 2.49581 12.8833 1.99998 11 1.99998C9.11666 1.99998 7.3875 2.49581 5.8125 3.48748C4.2375 4.47914 3.03333 5.81664 2.2 7.49998C3.03333 9.18331 4.2375 10.5208 5.8125 11.5125C7.3875 12.5041 9.11666 13 11 13Z" fill="#B3B3B3"/>
</svg>
