<svg width="400" height="452" viewBox="0 0 400 452" fill="none" xmlns="http://www.w3.org/2000/svg">
<path fill-rule="evenodd" clip-rule="evenodd" d="M216.695 197.775C209.292 227.543 206.908 305.745 167.509 289.348C130.368 273.959 57.2167 262.481 0.125793 269.04C0.125793 235.237 1.63149 179.108 40.7795 173.053C90.7185 165.359 164.498 173.684 216.695 197.775Z" fill="#35537D"/>
<path fill-rule="evenodd" clip-rule="evenodd" d="M294.991 0C294.991 78.2022 297.626 102.167 212.429 118.565C98.4977 140.512 24.2167 188.442 0 269.041C0 66.4719 93.1022 21.0642 294.991 0Z" fill="#00ABE4" fill-opacity="0.6"/>
<path fill-rule="evenodd" clip-rule="evenodd" d="M216.695 197.775C216.695 273.581 220.961 291.996 141.786 315.205C75.4102 334.629 23.5893 379.532 0 451.68C0 284.681 44.0416 232.714 216.695 197.775Z" fill="#00ABE4" fill-opacity="0.6"/>
<path d="M266.147 422.36C265.701 422.39 265.135 422.42 264.421 422.42C263.766 422.42 263.111 422.39 262.486 422.33C261.861 422.3 261.325 422.21 260.938 422.12L260.849 413.054H256.325V422.12C255.283 422.33 254.063 422.42 252.604 422.42C250.908 422.42 249.538 422.3 248.497 422.031L248.407 413.054H243.883V422.15L237.156 422.18C235.638 422.18 234.567 422.12 233.942 422.001C233.317 421.881 232.692 421.582 232.007 421.073C231.322 420.564 230.132 419.517 228.435 417.931L223.613 413.503C220.845 416.705 218.97 418.829 217.988 419.846C217.005 420.864 216.142 421.522 215.487 421.761C214.833 422.031 213.761 422.15 212.362 422.15H210.963C209.505 422.15 208.225 421.941 207.153 421.552V412.546H202.659L202.629 421.612C202.004 421.791 201.349 421.941 200.605 422.001C199.861 422.09 198.938 422.12 197.777 422.12H197.748H196.2C195.069 422.12 194.206 421.971 193.67 421.701C193.134 421.432 192.777 421.013 192.598 420.505C192.42 419.966 192.271 419.158 192.182 418.021L191.318 408.806L186.437 410.092L188.669 421.971C187.985 422.15 187.092 422.3 185.931 422.45C184.77 422.569 183.669 422.629 182.627 422.629C181.317 422.629 180.305 422.539 179.591 422.36V417.931H175.216L175.186 421.731C175.186 423.287 175.424 424.484 175.87 425.382C176.347 426.279 177.091 426.938 178.133 427.297C179.174 427.686 180.573 427.895 182.389 427.895C184.026 427.895 185.544 427.656 186.973 427.207C188.372 426.728 189.592 426.1 190.604 425.292C192.271 426.638 194.116 427.327 196.14 427.327H197.271H197.718C198.938 427.297 200.159 427.117 201.319 426.818C202.629 426.459 203.849 425.95 204.921 425.322C206.022 425.98 207.004 426.489 207.868 426.818C208.731 427.177 209.594 427.357 210.487 427.357H210.933H212.511C213.315 427.357 214.059 427.207 214.773 426.908C215.487 426.609 216.172 426.16 216.857 425.591C217.273 426.908 217.839 428.075 218.583 429.122C219.327 430.169 220.161 430.977 221.143 431.575C222.125 432.174 223.137 432.473 224.179 432.473C225.28 432.473 226.322 432.174 227.304 431.605C228.257 431.037 229.09 430.229 229.775 429.182C230.459 428.164 230.935 426.968 231.203 425.591C232.275 426.19 233.257 426.638 234.18 426.908C235.103 427.177 236.085 427.327 237.127 427.327H237.186H238.704H238.793C240.311 427.327 241.74 427.207 242.99 426.938C244.27 426.698 245.312 426.339 246.116 425.86C246.979 426.369 247.931 426.758 249.003 427.027C250.074 427.297 251.205 427.416 252.396 427.416C253.557 427.416 254.688 427.267 255.759 426.968C256.861 426.668 257.783 426.249 258.557 425.711C260.432 426.878 262.159 427.446 263.796 427.446C265.076 427.446 266.207 427.177 267.219 426.668C268.201 426.13 268.975 425.412 269.541 424.454C270.076 423.497 270.374 422.42 270.374 421.223V410.152L265.314 410.9L266.147 422.36ZM227.334 425.292C227.006 425.801 226.59 426.19 226.114 426.459C225.637 426.728 225.191 426.848 224.715 426.848C223.911 426.848 223.107 426.519 222.333 425.86C221.559 425.202 220.934 424.335 220.458 423.198L223.822 419.787L228.108 423.497C227.959 424.185 227.691 424.783 227.334 425.292Z" fill="#F1F1F1"/>
<path d="M383.004 431.665L379.73 428.643L376.843 431.336L373.896 428.613L370.622 431.665L373.896 434.657L376.813 431.994L379.73 434.687L383.004 431.665Z" fill="#F1F1F1"/>
<path d="M163.34 423.139C163.995 421.673 164.322 419.518 164.322 416.646C164.322 414.073 163.965 411.888 163.25 410.123C162.536 408.328 161.524 407.011 160.214 406.114C158.905 405.216 157.357 404.767 155.541 404.767C153.547 404.767 152.029 405.575 151.077 407.191C150.094 408.807 149.618 411.29 149.618 414.671C149.618 416.795 150.154 418.351 151.196 419.309C152.237 420.296 153.785 420.775 155.809 420.775C156.702 420.775 157.893 420.685 159.411 420.476C159.589 420.446 159.887 420.416 160.304 420.356L160.125 422.211H151.94H144.737H144.469L143.784 412.188L138.784 413.414L140.689 424.515C139.915 426.25 138.903 427.567 137.682 428.405C136.462 429.213 134.974 429.661 133.158 429.661H130.926V434.568C131.997 434.838 133.009 434.987 133.992 434.987C135.51 434.987 136.909 434.628 138.248 433.94C139.558 433.252 140.718 432.265 141.671 430.978C142.653 429.691 143.397 428.195 143.903 426.49C144.618 426.789 145.332 426.998 145.957 427.178C146.612 427.328 149.44 427.417 150.154 427.417H151.91V427.387C155.184 427.298 157.655 426.969 159.351 426.4C161.375 425.682 162.685 424.605 163.34 423.139ZM156.375 415.838C155.601 415.838 155.006 415.778 154.559 415.658C154.113 415.539 153.815 415.329 153.607 415.03C153.428 414.761 153.309 414.372 153.309 413.893C153.309 412.846 153.398 411.47 153.607 409.704H154.41C155.75 409.704 156.881 409.914 157.714 410.362C158.548 410.811 159.202 411.47 159.619 412.367C160.036 413.265 160.304 414.402 160.423 415.838H156.375Z" fill="#F1F1F1"/>
<path d="M130.182 414.312C129.199 411.918 127.86 409.794 126.163 407.939L122.8 412.158C124.229 413.774 125.389 415.449 126.253 417.185C127.146 418.92 127.622 420.625 127.711 422.241C127.235 422.391 126.491 422.54 125.508 422.63C124.526 422.72 123.514 422.78 122.443 422.78C120.865 422.78 119.734 422.66 119.049 422.451V418.052H114.674L114.644 421.792C114.644 423.348 114.882 424.545 115.329 425.443C115.805 426.34 116.549 426.999 117.591 427.388C118.633 427.777 120.062 427.986 121.847 427.986C123.931 427.986 125.717 427.747 127.175 427.238C128.634 426.729 129.735 425.981 130.509 425.024C131.283 424.036 131.67 422.87 131.67 421.493C131.67 419.129 131.164 416.706 130.182 414.312Z" fill="#F1F1F1"/>
<path d="M393.095 428.734L389.523 432.384L393.095 436.004L396.697 432.384L393.095 428.734Z" fill="#F1F1F1"/>
<path d="M398.601 424.006C399.524 422.929 400 421.702 400 420.326C400 419.129 399.97 417.513 399.881 415.419C399.791 413.324 399.702 411.529 399.613 410.003L394.583 411.08L395.743 421.104C395.029 421.463 394.047 421.732 392.856 421.912C391.666 422.091 390.326 422.211 388.868 422.211H387.32C385.861 422.211 384.582 422.002 383.51 421.613V412.606H379.045L379.016 421.672C378.39 421.852 377.706 422.002 376.991 422.061C376.247 422.151 375.325 422.181 374.164 422.181H372.616C371.068 422.181 369.997 422.121 369.401 422.002C368.776 421.882 368.122 421.583 367.437 421.074C366.752 420.565 365.562 419.518 363.865 417.932L359.043 413.504C356.305 416.706 354.4 418.83 353.418 419.847C352.435 420.865 351.572 421.523 350.917 421.762C350.233 422.031 349.191 422.151 347.792 422.151H346.393C345.054 422.151 344.072 421.912 343.446 421.463C342.821 421.014 342.494 420.296 342.494 419.309L342.464 406.143L337.166 406.802L337.434 409.225C334.696 409.884 332.642 410.572 331.302 411.35C329.933 412.098 328.981 413.085 328.415 414.342C327.85 415.598 327.582 417.334 327.582 419.578C327.582 420.476 327.612 421.433 327.701 422.51L327.879 425.592L339.101 425.622L339.785 423.737C340.44 424.994 341.303 425.921 342.405 426.49C343.506 427.058 344.816 427.327 346.334 427.327H346.363H347.941C348.745 427.327 349.489 427.178 350.203 426.879C350.917 426.579 351.602 426.131 352.287 425.562C352.703 426.879 353.269 428.046 354.013 429.093C354.757 430.14 355.591 430.948 356.573 431.546C357.555 432.145 358.567 432.444 359.609 432.444C360.71 432.444 361.752 432.145 362.734 431.576C363.687 431.008 364.52 430.2 365.205 429.153C365.889 428.135 366.365 426.939 366.633 425.562C367.705 426.161 368.687 426.609 369.61 426.879C370.533 427.148 371.515 427.298 372.557 427.298H372.616H373.688H374.223V427.268C375.414 427.238 376.575 427.058 377.736 426.759C379.045 426.4 380.266 425.891 381.367 425.263C382.468 425.921 383.451 426.43 384.314 426.759C385.177 427.118 386.04 427.298 386.933 427.298H387.379H388.957C391.16 427.298 393.124 426.998 394.821 426.4C396.368 425.891 397.678 425.053 398.601 424.006ZM331.302 420.446C331.273 420.176 331.273 419.817 331.273 419.368C331.273 418.291 331.451 417.483 331.838 416.915C332.225 416.376 332.82 415.928 333.654 415.628C334.487 415.299 335.946 414.88 338.029 414.342L338.386 420.446H331.302ZM362.675 425.293C362.317 425.802 361.901 426.19 361.454 426.46C360.978 426.729 360.532 426.849 360.055 426.849C359.252 426.849 358.448 426.52 357.674 425.861C356.9 425.203 356.275 424.335 355.799 423.198L359.162 419.787L363.419 423.468C363.27 424.186 363.032 424.784 362.675 425.293Z" fill="#F1F1F1"/>
<path d="M208.255 407.908L204.653 404.258L201.052 407.908L204.653 411.529L208.255 407.908Z" fill="#F1F1F1"/>
<path d="M258.736 406.381L261.713 409.403L265.046 406.052L261.713 402.671L258.706 405.693L255.7 402.671L252.366 406.052L255.7 409.403L258.736 406.381Z" fill="#F1F1F1"/>
<path d="M262.01 400.907L258.676 397.526L255.372 400.907L258.676 404.258L262.01 400.907Z" fill="#F1F1F1"/>
<path d="M159.291 399.65L155.719 396L152.118 399.65L155.719 403.271L159.291 399.65Z" fill="#F1F1F1"/>
<path d="M310.259 408.328C308.384 407.52 305.467 406.473 301.538 405.156L300.824 404.917L300.228 407.639C298.889 408.058 297.728 408.687 296.776 409.524C295.793 410.362 295.049 411.38 294.513 412.546C293.978 413.713 293.74 415 293.74 416.406C293.74 417.573 294.007 418.65 294.543 419.638C295.079 420.625 295.823 421.463 296.835 422.151H293.025L288.531 422.121C288.412 417.962 287.667 414.85 286.269 412.786C284.87 410.721 282.786 409.674 280.048 409.674C278.143 409.674 276.684 410.093 275.702 410.991C274.72 411.858 274.065 413.055 273.767 414.581C273.44 416.107 273.291 418.052 273.291 420.446C273.291 422.061 273.529 423.348 274.005 424.365C274.482 425.383 275.226 426.131 276.208 426.609C277.22 427.088 278.5 427.327 280.077 427.327C281.625 427.327 283.054 427.268 284.334 427.118C284.125 427.866 283.709 428.435 283.054 428.794C282.429 429.153 281.714 429.392 280.941 429.482C280.167 429.572 279.274 429.601 278.232 429.601H273.44V434.299C275.375 434.598 277.071 434.748 278.559 434.748C281.417 434.748 283.59 434.149 285.137 432.953C286.685 431.756 287.697 429.871 288.173 427.298H291.477H293.025C294.513 427.298 295.793 427.208 296.895 427.028C297.966 426.849 298.978 426.52 299.931 426.071C300.883 425.592 301.806 424.964 302.729 424.126H315.855L316.272 416.885C316.272 416.735 316.301 416.496 316.301 416.197C316.301 414.192 315.766 412.576 314.664 411.35C313.622 410.183 312.164 409.165 310.259 408.328ZM280.613 422.211C279.69 422.211 278.976 422.151 278.53 422.001C278.083 421.852 277.756 421.583 277.577 421.224C277.399 420.835 277.309 420.296 277.309 419.548C277.309 418.082 277.369 416.586 277.518 415.06C278.143 414.94 278.798 414.91 279.452 414.91C280.583 414.91 281.476 415.12 282.131 415.568C282.786 416.017 283.232 416.765 283.56 417.783C283.858 418.83 284.036 420.296 284.066 422.211H280.613ZM303.115 419.159L301.687 419.219C300.794 419.249 300.05 419.159 299.454 418.86C298.829 418.561 298.383 418.172 298.085 417.633C297.788 417.094 297.609 416.496 297.609 415.778C297.609 415.06 297.817 414.402 298.174 413.833C298.561 413.265 299.067 412.786 299.752 412.457C300.437 412.128 301.211 411.948 302.044 411.948C302.55 411.948 302.877 411.978 303.086 412.008V419.159H303.115ZM312.521 417.513L312.402 419.578L306.925 419.548L307.044 412.128C308.533 412.666 309.694 413.175 310.467 413.683C311.241 414.192 311.807 414.731 312.104 415.329C312.432 415.898 312.551 416.646 312.521 417.513Z" fill="#F1F1F1"/>
<path d="M110.149 426.31L110.12 402.582L105 403.211L105.833 426.31H110.149Z" fill="#F1F1F1"/>
<path d="M154.291 443.036C153.547 442.647 152.714 442.468 151.731 442.468H147.921V451.534H151.731C152.684 451.534 153.547 451.354 154.291 450.965C155.035 450.576 155.601 450.038 156.017 449.38C156.434 448.691 156.613 447.913 156.613 447.016C156.613 446.118 156.404 445.34 156.017 444.652C155.601 443.964 155.035 443.425 154.291 443.036ZM154.886 448.781C154.589 449.29 154.172 449.709 153.606 449.978C153.041 450.277 152.386 450.397 151.672 450.397H149.231V443.575H151.672C152.386 443.575 153.041 443.724 153.606 443.994C154.172 444.293 154.589 444.682 154.886 445.191C155.184 445.699 155.333 446.298 155.333 446.986C155.333 447.674 155.184 448.272 154.886 448.781Z" fill="#F1F1F1"/>
<path d="M105.715 451.534H107.024V447.883H111.549V446.776H107.024V443.605H112.084V442.468H105.715V451.534Z" fill="#F1F1F1"/>
<path d="M140.123 447.404C140.48 446.896 140.629 446.327 140.629 445.609C140.629 444.622 140.301 443.844 139.617 443.275C138.962 442.707 138.039 442.438 136.849 442.438H133.336V451.504H134.616V448.751H136.849C136.998 448.751 137.176 448.751 137.414 448.721L139.349 451.504H140.748L138.605 448.452C139.289 448.272 139.795 447.913 140.123 447.404ZM136.849 447.674H134.646V443.604H136.849C137.652 443.604 138.277 443.784 138.724 444.143C139.141 444.502 139.379 444.981 139.379 445.639C139.379 446.297 139.17 446.806 138.724 447.165C138.277 447.494 137.652 447.674 136.849 447.674Z" fill="#F1F1F1"/>
<path d="M121.43 442.468L117.352 451.534H118.692L119.674 449.26H124.466L125.448 451.534H126.818L122.71 442.468H121.43ZM120.121 448.243L122.055 443.814L123.99 448.243H120.121Z" fill="#F1F1F1"/>
<path d="M394.732 447.495H399.256V446.387H394.732V443.605H399.821V442.468H393.452V451.534H400V450.427H394.732V447.495Z" fill="#F1F1F1"/>
<path d="M225.578 442.468L221.5 451.534H222.839L223.821 449.26H228.614L229.596 451.534H230.965L226.857 442.468H225.578ZM224.268 448.243L226.203 443.814L228.137 448.243H224.268Z" fill="#F1F1F1"/>
<path d="M369.699 449.23L364.282 442.468H363.24V451.534H364.52V444.772L369.937 451.534H371.009V442.468H369.699V449.23Z" fill="#F1F1F1"/>
<path d="M296.15 449.23L290.733 442.468H289.691V451.534H290.971V444.772L296.388 451.534H297.46V442.468H296.15V449.23Z" fill="#F1F1F1"/>
<path d="M281.774 442.468H280.494V451.534H281.774V442.468Z" fill="#F1F1F1"/>
<path d="M309.991 446.955C309.574 446.805 309.038 446.626 308.354 446.446C307.848 446.326 307.431 446.207 307.104 446.117C306.776 446.027 306.538 445.848 306.33 445.668C306.121 445.489 306.032 445.219 306.032 444.92C306.032 444.501 306.211 444.142 306.598 443.873C306.955 443.603 307.52 443.484 308.235 443.484C308.652 443.484 309.068 443.544 309.515 443.663C309.931 443.783 310.348 443.963 310.735 444.202L311.152 443.155C310.795 442.885 310.348 442.706 309.812 442.556C309.306 442.407 308.771 442.347 308.235 442.347C307.461 442.347 306.836 442.466 306.33 442.706C305.824 442.945 305.437 443.244 305.169 443.633C304.931 444.022 304.782 444.471 304.782 444.95C304.782 445.518 304.931 445.997 305.229 446.326C305.526 446.655 305.883 446.925 306.3 447.074C306.717 447.224 307.282 447.403 307.937 447.583C308.473 447.703 308.89 447.822 309.187 447.942C309.485 448.062 309.723 448.181 309.931 448.391C310.14 448.6 310.229 448.84 310.229 449.139C310.229 449.558 310.05 449.887 309.664 450.156C309.306 450.396 308.741 450.545 307.997 450.545C307.431 450.545 306.866 450.455 306.36 450.246C305.824 450.036 305.377 449.797 305.05 449.498L304.574 450.515C304.931 450.844 305.437 451.114 306.062 451.353C306.687 451.562 307.342 451.652 308.026 451.652C308.8 451.652 309.425 451.533 309.961 451.323C310.497 451.084 310.884 450.785 311.152 450.396C311.39 450.007 311.539 449.558 311.539 449.109C311.539 448.54 311.39 448.092 311.092 447.733C310.765 447.374 310.408 447.134 309.991 446.955Z" fill="#F1F1F1"/>
<path d="M351.304 442.468L347.227 451.534H348.536L349.548 449.26H354.34L355.323 451.534H356.692L352.584 442.468H351.304ZM349.995 448.243L351.929 443.814L353.894 448.243H349.995Z" fill="#F1F1F1"/>
<path d="M340.768 447.404C341.125 446.896 341.274 446.327 341.274 445.609C341.274 444.622 340.946 443.844 340.262 443.275C339.607 442.707 338.684 442.438 337.494 442.438H333.981V451.504H335.261V448.751H337.494C337.613 448.751 337.821 448.751 338.059 448.721L340.024 451.504H341.423L339.28 448.452C339.934 448.272 340.411 447.913 340.768 447.404ZM337.494 447.674H335.291V443.604H337.494C338.297 443.604 338.922 443.784 339.369 444.143C339.786 444.502 340.024 444.981 340.024 445.639C340.024 446.297 339.815 446.806 339.369 447.165C338.922 447.494 338.297 447.674 337.494 447.674Z" fill="#F1F1F1"/>
<path d="M193.848 446.955C193.431 446.805 192.896 446.626 192.211 446.446C191.705 446.326 191.288 446.207 190.961 446.117C190.663 445.997 190.395 445.848 190.187 445.668C189.979 445.489 189.889 445.219 189.889 444.92C189.889 444.501 190.068 444.142 190.455 443.873C190.812 443.603 191.378 443.484 192.092 443.484C192.509 443.484 192.925 443.544 193.342 443.663C193.789 443.783 194.176 443.963 194.562 444.202L194.979 443.155C194.622 442.885 194.176 442.706 193.64 442.556C193.134 442.407 192.598 442.347 192.062 442.347C191.288 442.347 190.663 442.466 190.157 442.706C189.651 442.945 189.264 443.244 188.996 443.633C188.758 444.022 188.609 444.471 188.609 444.95C188.609 445.518 188.758 445.997 189.056 446.326C189.354 446.655 189.711 446.925 190.128 447.074C190.544 447.224 191.11 447.403 191.765 447.583C192.3 447.703 192.717 447.822 193.015 447.942C193.312 448.062 193.58 448.181 193.759 448.391C193.967 448.6 194.056 448.84 194.056 449.139C194.056 449.558 193.878 449.887 193.491 450.156C193.134 450.396 192.568 450.545 191.824 450.545C191.259 450.545 190.693 450.455 190.187 450.246C189.651 450.036 189.205 449.797 188.877 449.498L188.401 450.515C188.758 450.844 189.264 451.114 189.889 451.353C190.514 451.562 191.169 451.652 191.854 451.652C192.628 451.652 193.253 451.533 193.789 451.323C194.324 451.084 194.711 450.785 194.949 450.396C195.217 450.007 195.336 449.558 195.336 449.109C195.336 448.54 195.188 448.092 194.89 447.733C194.592 447.374 194.235 447.134 193.848 446.955Z" fill="#F1F1F1"/>
<path d="M381.189 443.964C381.724 443.665 382.349 443.515 383.004 443.515C384.016 443.515 384.85 443.874 385.534 444.592L386.368 443.785C385.951 443.306 385.445 442.977 384.879 442.737C384.284 442.498 383.659 442.378 382.945 442.378C382.052 442.378 381.218 442.588 380.474 442.977C379.76 443.396 379.165 443.934 378.748 444.622C378.331 445.311 378.123 446.118 378.123 446.986C378.123 447.854 378.331 448.662 378.748 449.35C379.165 450.068 379.73 450.607 380.474 450.996C381.189 451.414 382.022 451.594 382.915 451.594C383.6 451.594 384.254 451.474 384.85 451.235C385.445 450.996 385.951 450.636 386.338 450.158L385.505 449.35C384.82 450.068 383.957 450.457 382.974 450.457C382.32 450.457 381.695 450.307 381.159 450.008C380.623 449.709 380.206 449.29 379.879 448.751C379.581 448.213 379.403 447.614 379.403 446.956C379.403 446.298 379.552 445.7 379.879 445.161C380.236 444.682 380.653 444.263 381.189 443.964Z" fill="#F1F1F1"/>
<path d="M212.421 442.468L208.701 448.841L204.95 442.468H203.879V451.534H205.129V444.981L208.373 450.457H208.969L212.243 444.921V451.534H213.493V442.468H212.421Z" fill="#F1F1F1"/>
<path d="M166.405 442.468L162.327 451.534H163.637L164.649 449.26H169.441L170.423 451.534H171.792L167.685 442.468H166.405ZM165.065 448.243L167 443.814L168.965 448.243H165.065Z" fill="#F1F1F1"/>
<path d="M253.586 443.605H256.652V451.534H257.932V443.605H261.028V442.468H253.586V443.605Z" fill="#F1F1F1"/>
<path d="M324.903 447.584C324.903 448.572 324.694 449.29 324.248 449.768C323.801 450.247 323.176 450.487 322.343 450.487C320.646 450.487 319.813 449.499 319.813 447.584V442.468H318.533V447.614C318.533 448.901 318.86 449.918 319.545 450.606C320.2 451.294 321.152 451.624 322.343 451.624C323.533 451.624 324.486 451.294 325.141 450.606C325.796 449.918 326.153 448.931 326.153 447.614V442.468H324.903V447.584Z" fill="#F1F1F1"/>
<path d="M245.729 447.404C246.086 446.896 246.235 446.327 246.235 445.609C246.235 444.622 245.907 443.844 245.223 443.275C244.568 442.707 243.645 442.438 242.455 442.438H238.942V451.504H240.222V448.751H242.455C242.603 448.751 242.782 448.751 243.02 448.721L244.955 451.504H246.354L244.211 448.452C244.895 448.272 245.401 447.913 245.729 447.404ZM242.455 447.674H240.252V443.604H242.455C243.258 443.604 243.883 443.784 244.33 444.143C244.776 444.502 244.985 444.981 244.985 445.639C244.985 446.297 244.776 446.806 244.33 447.165C243.883 447.494 243.258 447.674 242.455 447.674Z" fill="#F1F1F1"/>
</svg>
