<svg width="16" height="16" viewBox="0 0 16 16" fill="none" xmlns="http://www.w3.org/2000/svg">
<path d="M8.00001 7.69231C7.03752 7.69231 6.21357 7.34961 5.52816 6.66421C4.84274 5.97879 4.50003 5.15484 4.50003 4.19236C4.50003 3.22986 4.84274 2.40591 5.52816 1.72051C6.21357 1.03509 7.03752 0.692383 8.00001 0.692383C8.96249 0.692383 9.78644 1.03509 10.4719 1.72051C11.1573 2.40591 11.5 3.22986 11.5 4.19236C11.5 5.15484 11.1573 5.97879 10.4719 6.66421C9.78644 7.34961 8.96249 7.69231 8.00001 7.69231ZM0.500031 15.3077V13.0846C0.500031 12.5949 0.633047 12.1414 0.89908 11.7241C1.1651 11.3068 1.52054 10.986 1.96541 10.7616C2.95387 10.277 3.95099 9.91351 4.95676 9.67121C5.96252 9.42891 6.97694 9.30776 8.00001 9.30776C9.02307 9.30776 10.0375 9.42891 11.0433 9.67121C12.049 9.91351 13.0461 10.277 14.0346 10.7616C14.4795 10.986 14.8349 11.3068 15.1009 11.7241C15.367 12.1414 15.5 12.5949 15.5 13.0846V15.3077H0.500031ZM2.00001 13.8077H14V13.0846C14 12.8821 13.9413 12.6946 13.824 12.5221C13.7067 12.3497 13.5474 12.209 13.3462 12.1C12.4846 11.6757 11.6061 11.3542 10.7107 11.1356C9.81527 10.917 8.91171 10.8077 8.00001 10.8077C7.08831 10.8077 6.18474 10.917 5.28931 11.1356C4.39387 11.3542 3.51539 11.6757 2.65386 12.1C2.45257 12.209 2.29328 12.3497 2.17598 12.5221C2.05866 12.6946 2.00001 12.8821 2.00001 13.0846V13.8077ZM8.00001 6.19236C8.55001 6.19236 9.02084 5.99653 9.41251 5.60486C9.80417 5.21319 10 4.74236 10 4.19236C10 3.64236 9.80417 3.17153 9.41251 2.77986C9.02084 2.38819 8.55001 2.19236 8.00001 2.19236C7.45001 2.19236 6.97917 2.38819 6.58751 2.77986C6.19584 3.17153 6.00001 3.64236 6.00001 4.19236C6.00001 4.74236 6.19584 5.21319 6.58751 5.60486C6.97917 5.99653 7.45001 6.19236 8.00001 6.19236Z" fill="#B3B3B3"/>
</svg>
